<?xml version="1.0" encoding="UTF-8" standalone="no"?>
<!-- Created with Inkscape (http://www.inkscape.org/) -->

<svg
   width="210mm"
   height="297mm"
   viewBox="0 0 210 297"
   version="1.1"
   id="svg1"
   xml:space="preserve"
   inkscape:version="1.3.2 (091e20e, 2023-11-25, custom)"
   sodipodi:docname="dzik.svg"
   xmlns:inkscape="http://www.inkscape.org/namespaces/inkscape"
   xmlns:sodipodi="http://sodipodi.sourceforge.net/DTD/sodipodi-0.dtd"
   xmlns="http://www.w3.org/2000/svg"
   xmlns:svg="http://www.w3.org/2000/svg"><sodipodi:namedview
     id="namedview1"
     pagecolor="#ffffff"
     bordercolor="#000000"
     borderopacity="0.25"
     inkscape:showpageshadow="2"
     inkscape:pageopacity="0.0"
     inkscape:pagecheckerboard="0"
     inkscape:deskcolor="#d1d1d1"
     inkscape:document-units="mm"
     inkscape:zoom="1.5244262"
     inkscape:cx="291.91312"
     inkscape:cy="190.8915"
     inkscape:window-width="2560"
     inkscape:window-height="1494"
     inkscape:window-x="-11"
     inkscape:window-y="-11"
     inkscape:window-maximized="1"
     inkscape:current-layer="layer1" /><defs
     id="defs1" /><g
     inkscape:label="Layer 1"
     inkscape:groupmode="layer"
     id="layer1"><path
       style="display:inline;fill:#000000;stroke-width:0.527323"
       d="m 72.330139,82.623667 c -6.612864,-0.211159 -13.008816,-2.243233 -19.343692,-3.756926 2.416646,1.597081 4.916981,3.879668 0.330272,2.302319 -8.308693,-2.036024 -16.233395,-5.309123 -24.26013,-8.151078 -5.807254,2.299242 -12.318181,-4.141747 -12.806227,-9.920164 -0.456392,-3.043706 2.018558,-9.760883 3.613764,-3.596508 5.439994,5.185304 -0.738273,-10.521969 2.525493,-8.151069 2.474223,5.337931 7.085293,11.089399 13.015026,6.234748 7.45846,-0.350763 9.087885,-11.390843 5.258614,-16.563423 -2.569885,-5.072054 -9.564239,-8.662626 -12.44125,-11.607219 2.799943,0.323023 11.327691,4.530965 10.325862,2.207174 -1.934074,-1.319086 -7.784051,-5.084713 -1.902628,-2.861686 2.731417,1.232259 9.747328,4.394441 4.337154,-0.67362 -1.767494,-1.598079 -8.641998,-7.161723 -2.512931,-3.734355 2.202928,1.270728 9.669335,6.810566 4.856333,1.309401 -1.787563,-1.580455 -4.567726,-4.730289 -0.373526,-1.753137 3.36238,1.065768 8.93278,8.182969 10.348146,6.939984 -0.02285,-3.174974 -5.298499,-10.294985 -3.631191,-10.772636 2.170295,1.736648 7.662334,6.906043 3.82028,0.974565 -1.859762,-2.428421 -3.588997,-6.128016 0.616594,-2.265414 2.665814,1.907972 8.842727,8.225292 4.284717,1.633252 -0.755868,-3.563202 6.467178,9.013173 4.816717,0.938045 -0.947071,-3.214879 -1.062274,-5.43727 1.149113,-1.260895 2.151915,7.217008 4.893802,-8.154058 5.088375,0.802318 0.259185,4.186002 8.504728,-6.762812 3.783766,0.28657 -1.921045,3.754562 9.742662,-6.396199 4.956139,-0.519613 -3.024839,4.646404 7.826934,-3.612056 11.02695,-2.856969 -2.661784,1.801963 -10.869896,6.215146 -8.65025,7.426089 5.717154,-1.471303 11.595939,-3.358899 17.43998,-3.562818 -2.960768,1.411037 -9.240042,3.350422 -2.261717,2.556426 5.492068,-0.112977 11.571068,-0.736524 16.723988,0.193306 -3.15015,0.896412 -10.58637,0.365705 -11.4014,2.349973 8.60338,0.247015 17.28669,0.953829 25.63761,3.053741 -7.81868,0.552151 -15.78793,0.716857 -23.46486,2.696097 -4.290307,1.704338 7.79008,0.512793 10.41666,0.906418 20.88216,-0.05673 41.60143,5.050298 60.63397,13.440261 -3.25883,-0.702459 -6.24068,-1.208178 -1.14933,0.927884 2.52819,1.166017 9.19133,4.197624 8.84186,5.291805 -2.90886,-1.235972 -7.65602,-3.432371 -7.46654,0.572913 -2.1127,-5.702635 -8.8753,-7.490279 -14.00459,-9.606098 -9.9754,-3.166101 -20.21175,-5.870479 -30.51646,-7.528628 2.57195,1.306295 12.74654,4.064586 3.93048,2.133201 -19.38519,-4.224893 -39.565233,-3.749355 -59.017521,-0.234331 -6.706636,0.107044 3.846133,3.399327 -1.425822,2.908011 -9.148016,-0.21465 -19.933168,-1.014347 -26.693862,6.437315 -1.65764,3.068482 -1.666892,6.121879 -5.456701,8.472046 -0.04939,2.323472 7.431604,4.478736 1.129917,3.005242 -2.393683,-1.140656 -12.055674,-0.395019 -4.983468,1.709683 8.875428,4.713722 -13.352632,-3.871174 -4.920845,2.510752 2.7671,1.993856 6.768576,4.537032 10.003522,2.290364 -1.008667,-2.937073 8.075954,2.383611 6.102749,-3.856084 2.385646,3.119298 10.532022,-2.707835 3.121385,-1.936093 -2.295261,0.103445 -7.338791,-3.151703 -2.276375,-1.260834 3.704626,1.689277 12.270121,1.687812 7.69399,-1.871023 2.505132,-1.036733 5.269071,-3.532263 2.95215,1.037322 4.802826,2.806211 7.294838,9.848555 12.25475,11.068446 4.157038,0.451678 -6.506872,3.618015 -8.95559,3.506937 -8.500122,0.808325 -16.943646,-1.576556 -25.37178,-1.238448 -6.579917,2.159071 -11.781934,-3.88681 -14.62615,-9.002101 -2.491826,0.229586 3.40097,7.64916 6.058867,8.718948 5.792351,1.739748 13.045479,5.611677 18.076943,5.972128 -3.454516,-4.676407 6.074027,0.613569 8.857574,0.574139 7.159798,1.88529 14.563128,3.114207 21.983896,2.610179 -7.164461,-4.927822 5.462739,-1.225583 8.563639,-2.199891 9.04939,-0.0122 -3.92516,-4.214469 -4.800626,-7.720062 -2.498551,-3.046824 -4.379838,-10.509267 -2.463522,-12.601322 2.324358,5.562513 5.452353,-5.684746 10.391498,-3.669318 6.585615,-0.203472 11.484722,-5.470802 17.967102,-6.389147 5.51772,-1.495218 11.22581,-2.833629 16.90762,-3.092875 -2.38693,1.154028 -11.43065,2.363975 -10.65249,3.933874 12.12443,-2.093906 25.32266,-4.801251 37.02751,0.453814 8.00138,2.712745 2.22729,13.779505 -4.60773,10.340447 9.02244,-0.323608 5.43638,-11.016178 -1.66795,-11.199944 -3.23942,-0.860874 -8.83893,-1.151284 -3.1459,2.113698 1.68102,3.449137 -2.83806,7.181567 2.56223,8.75008 2.79351,4.148147 -6.17232,1.295224 -7.17465,-1.222754 -4.95921,-1.727587 5.99128,-5.223625 0.28515,-8.719567 -3.31316,-1.988478 -14.32295,-3.004717 -9.31049,3.544765 1.72666,3.361003 -10.66812,4.291613 -2.34937,3.648268 4.40008,1.782738 4.04566,8.809904 -2.07863,7.977788 0.30028,2.432721 -1.19329,10.144081 -1.81657,8.220827 1.66639,-4.161403 -4.29507,-11.083702 3.40583,-10.831861 2.28787,-6.632871 -8.75437,-0.05281 -6.92217,-6.295956 3.83135,-0.463026 10.08834,-3.396693 4.36714,-6.493807 -3.64259,0.650368 -11.18058,0.700595 -6.53389,5.936622 -0.34876,2.416558 -3.46364,4.290425 0.0242,7.130752 3.23396,4.87273 -9.07604,1.705414 -4.48349,8.137505 1.21934,3.355889 0.3988,10.557552 -1.0596,3.233428 -0.91958,-3.780428 -6.00812,-9.527849 1.26243,-9.535317 3.80049,-3.029393 -4.43988,-5.681997 -7.30406,-3.459998 2.27831,-4.008431 13.51191,-4.275619 5.87052,-9.333932 -7.15912,0.281669 -11.90953,8.308145 -19.138171,4.589842 -8.354352,-0.140432 -7.747227,11.755452 -2.337547,15.52701 3.277454,3.679836 8.931108,4.603128 12.829878,5.92362 -5.669345,2.264814 -11.87727,2.531023 -17.858601,2.851708 2.809385,0.723271 8.20891,1.827178 1.824271,2.353648 -4.525417,0.634007 -9.122317,0.840789 -13.682291,0.641223 z M 25.739479,72.035935 C 25.360808,67.440727 20.556582,61.90154 17.709638,59.248313 c -1.725479,5.81352 2.588226,10.926917 7.654535,12.916822 z m 29.81718,-0.770263 c 1.028037,-4.982415 -9.65026,-1.55867 -3.10826,0.125528 1.033373,0.09589 2.093683,0.165385 3.10826,-0.125528 z m 5.96059,-0.03313 c 3.531298,-4.288018 -10.247943,-5.068263 -4.513449,-0.437834 1.339405,0.798245 3.042465,0.812721 4.513449,0.437834 z m -12.13274,-0.503941 c 0.325351,-3.344633 -7.650731,0.01868 -1.747421,0.144223 l 1.105833,-0.01031 0.641428,-0.133914 z m 17.7663,-0.22514 c 4.045123,-4.050585 -9.772466,-6.094298 -4.147788,-0.472684 0.938482,1.251476 2.904911,1.048047 4.147788,0.472684 z m -30.7506,-0.197407 c 2.234585,-4.701415 -8.329481,-6.230947 -10.117932,-10.732992 -1.972623,-2.846332 -4.724308,-6.64076 -2.591115,-0.854929 2.082427,5.035882 5.695835,12.246876 12.016422,11.87249 l 0.692755,-0.284569 z m 7.72163,-0.25351 c -4.629746,-1.567815 -3.691202,1.409174 0,0 z m -1.3003,-1.368164 c 1.753273,-3.555534 -8.544916,0.07548 -1.81377,0.24803 l 1.133516,-0.08629 z m 4.16059,-0.145584 c 1.646113,-4.260094 -6.576619,-0.293541 -0.962608,0.212511 l 0.962608,-0.212493 z m 4.60904,-0.486172 c 5.600563,-3.580053 -7.531596,-4.427241 -2.79164,0.01874 0.912662,0.300187 1.881742,0.201103 2.79164,-0.01874 z m 5.33973,-1.397227 c 4.350036,-4.498054 -8.367832,-4.112555 -2.334787,0.127517 0.75514,0.298127 1.599347,0.134103 2.334787,-0.127517 z m 4.6045,-1.664694 c 5.05963,-4.803196 -8.849542,-3.364541 -1.942711,0.467805 l 0.964341,0.01057 z M 45.831759,45.584705 c 6.358844,-2.504773 -9.296333,-10.401151 -0.6564,-6.767659 2.399411,1.335533 7.157092,3.718571 2.854944,-0.459134 -3.289703,-4.787819 9.715511,5.33594 4.462832,-0.551412 -4.355248,-5.40961 7.009977,5.210601 5.220565,0.260188 5.368224,4.336237 -2.458289,-5.936912 2.582078,-1.761311 6.225877,5.139563 -0.278002,-2.806565 -0.86924,-4.998671 2.06832,1.387383 10.735878,10.60456 6.318069,4.135168 -2.117431,-2.454576 -2.838693,-5.298854 0.353172,-1.580258 2.56997,2.939246 0.843244,-9.362595 2.930428,-1.364946 1.253708,4.915498 2.101022,2.248764 3.205392,-0.600574 -0.5798,9.111549 6.685412,-3.226153 7.820014,-1.212035 -2.457929,2.449108 -3.263595,6.256979 0.834106,2.498483 2.497934,-1.970105 10.158009,-5.274989 3.648562,-0.976149 -7.367067,5.297114 4.983861,-0.629014 7.812433,-1.240123 2.366294,-1.168604 6.007216,-1.511274 1.388145,0.23227 -3.155354,1.016096 -5.269847,3.49211 -0.40185,1.715909 6.640116,-1.75909 13.699881,-2.61939 20.293321,-3.767483 -6.4633,-0.986262 -13.35519,-0.638956 -19.934161,-1.549287 1.852214,-1.126802 6.443661,-2.470909 1.28096,-2.007739 -2.476465,-0.433943 -8.823961,1.828737 -9.163891,0.683134 6.550652,-3.533114 -5.800928,0.504606 -7.878379,1.598239 -9.178978,4.597688 7.420086,-8.862593 0.07676,-4.510467 -2.286067,1.566963 -7.236083,4.88425 -3.307739,-0.121511 0.51326,-2.915381 -6.811659,7.955161 -3.687363,0.706207 -0.132093,-1.581824 -3.215732,4.156504 -2.792617,-1.313175 -1.24341,-0.02025 -1.712213,6.74914 -3.06699,0.960106 -1.23051,-1.633086 -0.198952,6.264957 -2.526674,2.706335 2.043094,6.461583 -8.589644,-8.432814 -6.927079,-3.368428 1.723196,2.609309 3.306361,8.024938 -0.542722,3.049569 -6.551602,-5.851091 1.879234,6.785923 0.01548,9.201436 -2.746858,-1.805753 -6.44363,-6.711875 -8.736842,-6.641576 4.09372,6.719412 -6.638244,-3.832109 -2.070912,1.573383 2.500284,2.407743 2.917406,5.212998 -0.910948,2.518602 -4.123025,-2.455461 -3.557463,-0.640245 -0.479022,1.576142 6.455544,5.96471 -12.681028,-5.135602 -5.521969,0.588832 4.092589,2.346541 5.94398,8.818921 8.377541,10.787935 z m 94.537751,36.269161 c 1.10885,-2.228627 12.87308,-6.337422 5.55478,-7.046657 -8.35754,1.49641 4.82833,-3.223763 7.27936,-1.707431 1.64141,-0.290437 8.06833,-3.069945 6.84992,-0.920998 -2.6955,-0.326121 -9.35445,5.130891 -3.58805,3.851051 3.30408,-1.816413 5.1068,-0.727197 0.77998,0.534613 -3.03384,2.835219 -6.34309,2.591488 -8.90625,1.439732 -2.44411,1.716478 -5.63604,2.245873 -7.96974,3.84969 z m -8.1503,-0.36 c -1.32662,-2.579897 6.66286,-9.842557 -0.85003,-7.644487 -3.11855,0.919286 -10.83177,0.561051 -4.51943,-2.832251 3.36831,-1.621752 9.23391,-6.123018 11.67406,-5.129916 -3.4458,2.044637 2.58277,0.657233 -2.10039,2.304415 -3.84852,1.770851 -3.30298,3.771012 0.8933,2.57095 2.89999,-1.314541 9.90377,-8.097246 10.96736,-5.557123 -0.73389,1.900212 -7.77585,6.861641 -0.52129,5.458167 2.05453,-0.0747 10.59018,-0.963225 8.86246,0.293523 -5.13039,2.839009 -14.70858,-1.09729 -16.69462,5.429067 -2.54211,2.919453 9.36948,-0.900575 2.73144,1.297424 -3.33302,3.194484 -7.26553,0.829047 -10.44286,3.810231 z M 72.678869,79.27717 C 61.885341,78.579812 52.043685,73.488197 41.393883,72.149222 c 8.478896,-0.287586 17.109798,3.898353 25.773076,1.903837 2.512415,-0.275757 11.624551,-3.74781 4.760184,-0.464914 -2.988994,1.288051 -12.728451,2.138438 -4.377779,3.914224 1.148618,0.552629 10.80826,2.116745 5.129505,1.774801 z m 89.316291,-2.585547 c -0.51147,-3.613508 6.80325,-9.624169 -0.85085,-7.61541 -2.92509,0.405959 -10.35011,1.542364 -4.76669,-2.39828 3.25959,-1.913753 8.5198,-6.554199 9.65573,-4.739992 2.8636,-2.503529 6.7367,-1.928589 1.13353,0.293302 -2.81975,1.657375 -5.68133,5.959945 0.003,3.883729 3.87181,-2.675209 7.76096,-7.151901 12.6975,-6.18766 -2.92156,1.858283 -8.13112,7.280592 -0.91438,5.408126 2.77642,-0.06571 8.6678,-0.02852 9.43821,0.983007 -5.56885,1.332587 -12.752,0.27661 -17.91021,3.168213 -4.14241,5.723343 7.77161,0.386863 1.4912,3.802049 -3.44013,0.910851 -6.68228,2.917644 -9.9766,3.402916 z m -80.402141,-1.7557 C 77.630157,68.154115 71.407941,62.590395 63.958179,59.956665 c 0.794171,-8.359866 8.415435,4.908191 10.55415,2.841037 0.426232,-2.868795 4.666393,5.554752 5.761761,7.459749 0.214011,0.600055 3.076349,6.414226 1.318929,4.678472 z m 87.936241,0.360488 c 1.78409,-2.491628 3.7795,0.285061 0,0 z M 100.23414,73.128454 C 95.258968,71.992892 85.718479,60.471249 94.570584,59.512197 98.831678,59.44089 107.66127,73.38803 100.23414,73.128454 Z M 174.18,73.320119 c 4.20006,-2.984468 4.22269,-0.06458 0,0 z m -3.48806,-2.340426 c 1.03733,-2.708956 2.54829,-0.530827 0,0 z m -10.60356,-0.319275 c -0.96291,-1.691343 3.66511,0.315577 0,0 z m -19.73246,-5.207834 c -0.19398,-1.417989 2.14457,0.13859 0,0 z m 9.47891,-0.804373 c 0.21417,-1.716914 1.66014,0.556701 0,0 z m -7.11491,-0.417541 c 0.60436,-2.143101 2.74325,-0.489275 0,0 z m -9.70144,-2.519721 c -1.66023,-2.889641 -1.79295,-6.559869 1.86472,-2.746741 3.62786,2.488979 1.16952,3.534082 -1.86472,2.746741 z m 25.88583,-2.782161 c -2.46254,-2.13878 -4.23911,-2.519801 0.43497,-2.693389 2.53754,4.469915 5.66567,0.255077 2.73801,-3.22746 1.03008,-4.676725 -6.47565,-4.541971 -6.3733,-5.041624 6.15285,-3.270366 8.03641,2.983283 9.39568,7.6419 3.41116,5.09638 -3.88133,4.382104 -6.19536,3.320573 z M 50.355609,57.464486 c -2.028361,-1.893 -4.636812,-2.330116 -6.897154,-1.191537 4.377648,-2.617065 4.078387,-9.382002 10.908474,-8.741819 2.118332,-0.500142 -9.977436,4.246306 -3.398154,5.320108 4.062782,-0.862823 13.834917,-0.38119 14.757921,1.211668 -4.777935,-1.354906 -8.443213,0.228363 -11.882937,3.233261 -1.125516,0.308112 -2.340298,0.426819 -3.48815,0.168319 z m 2.53899,-0.840962 c 4.000597,-0.817806 4.924024,-4.77477 0.06275,-2.415227 -4.130157,1.390282 3.782517,0.891795 -1.160327,1.927307 -2.36388,-1.839466 -4.499847,-2.506652 -1.268707,0.300022 l 1.232107,0.396223 z M 167.28992,56.022343 c -0.79097,-2.994485 -3.58129,-8.845969 2.12694,-5.127349 2.96316,1.62165 0.57418,5.573238 -2.12694,5.127349 z M 78.189989,55.573139 c 5.81497,-1.891224 11.64057,-4.572211 15.686753,-9.409082 1.991657,-1.875149 6.763098,-5.282482 0.804133,-4.299399 -7.3803,0.429571 -15.00546,2.627149 -20.347986,7.983586 -2.201005,1.718954 -7.533867,3.220086 -2.457984,-0.02777 0.199315,-3.091148 -9.357552,-1.570328 -10.155657,-2.674283 5.750157,-1.450451 12.827348,0.07454 17.118728,-4.903215 1.858402,-1.402705 4.604712,-3.865381 4.395764,-1.665661 2.461515,-1.009453 8.510961,-3.898747 7.95535,-1.905013 2.587048,-1.296348 14.76668,-3.289182 6.444629,-0.08721 4.327631,0.521389 13.015421,-1.017867 15.829721,0.144725 -2.36759,0.165741 -13.932362,2.065625 -6.17805,2.606861 -3.2014,0.871363 -13.015435,5.855421 -4.20134,4.353423 3.66439,-0.588247 5.8898,-0.26689 0.84507,0.81681 -7.674198,1.494259 -13.728618,7.11841 -21.483751,8.458804 -1.383752,0.139849 -2.852129,1.055881 -4.25538,0.607419 z m 66.674301,-0.20465 c -5.07545,-6.085132 9.15489,-3.096775 1.87563,0.28155 l -0.95436,0.01564 z m 12.07744,-1.477284 c -1.46516,-7.041666 6.13408,1.894849 0,0 z m -26.62835,-0.580887 c -5.09715,-6.365382 8.30505,-3.746264 2.8028,-0.118814 -0.85801,0.159277 -2.09615,0.88572 -2.8028,0.118814 z M 74.564459,52.648842 c 5.308478,-3.427509 10.77904,-8.102308 17.48331,-8.661526 -3.418349,3.288118 -9.529994,10.252823 -12.98967,7.950969 -1.474449,0.347192 -2.955547,0.840924 -4.49364,0.710557 z"
       id="path1" /></g></svg>
