<?xml version="1.0" encoding="UTF-8" standalone="no"?>
<!-- Created with Inkscape (http://www.inkscape.org/) -->

<svg
   width="210mm"
   height="297mm"
   viewBox="0 0 210 297"
   version="1.1"
   id="svg1"
   inkscape:version="1.3.2 (091e20e, 2023-11-25, custom)"
   sodipodi:docname="bff_yin_yang.svg"
   xml:space="preserve"
   xmlns:inkscape="http://www.inkscape.org/namespaces/inkscape"
   xmlns:sodipodi="http://sodipodi.sourceforge.net/DTD/sodipodi-0.dtd"
   xmlns="http://www.w3.org/2000/svg"
   xmlns:svg="http://www.w3.org/2000/svg"><style
     id="style2">
.measure-arrow
{
}
.measure-label
{

}
.measure-line
{
}</style><sodipodi:namedview
     id="namedview1"
     pagecolor="#ffffff"
     bordercolor="#000000"
     borderopacity="0.25"
     inkscape:showpageshadow="2"
     inkscape:pageopacity="0.0"
     inkscape:pagecheckerboard="0"
     inkscape:deskcolor="#d1d1d1"
     inkscape:document-units="mm"
     inkscape:zoom="8"
     inkscape:cx="300.375"
     inkscape:cy="340"
     inkscape:window-width="2560"
     inkscape:window-height="1494"
     inkscape:window-x="-11"
     inkscape:window-y="-11"
     inkscape:window-maximized="1"
     inkscape:current-layer="layer6"
     showgrid="false" /><defs
     id="defs1"><inkscape:path-effect
       effect="fillet_chamfer"
       id="path-effect8"
       is_visible="true"
       lpeversion="1"
       nodesatellites_param="F,0,0,1,0,0,0,1 @ F,0,0,1,0,0,0,1 | F,0,0,1,0,0,0,1 @ F,0,0,1,0,0,0,1 @ F,0,0,1,0,0,0,1"
       radius="0"
       unit="px"
       method="auto"
       mode="F"
       chamfer_steps="1"
       flexible="false"
       use_knot_distance="true"
       apply_no_radius="true"
       apply_with_radius="true"
       only_selected="false"
       hide_knots="false" /><inkscape:path-effect
       effect="fillet_chamfer"
       id="path-effect7"
       is_visible="true"
       lpeversion="1"
       nodesatellites_param="F,0,0,1,0,0,0,1 @ F,0,0,1,0,0,0,1 | F,0,0,1,0,0,0,1 @ F,0,0,1,0,0,0,1 @ F,0,0,1,0,0,0,1"
       radius="0"
       unit="px"
       method="auto"
       mode="F"
       chamfer_steps="1"
       flexible="false"
       use_knot_distance="true"
       apply_no_radius="true"
       apply_with_radius="true"
       only_selected="false"
       hide_knots="false" /><inkscape:path-effect
       effect="fillet_chamfer"
       id="path-effect6"
       is_visible="true"
       lpeversion="1"
       nodesatellites_param="F,0,0,1,0,0,0,1 @ F,0,0,1,0,0,0,1 @ F,0,0,1,0,0,0,1"
       radius="0"
       unit="px"
       method="auto"
       mode="F"
       chamfer_steps="1"
       flexible="false"
       use_knot_distance="true"
       apply_no_radius="true"
       apply_with_radius="true"
       only_selected="false"
       hide_knots="false" /><inkscape:path-effect
       effect="fillet_chamfer"
       id="path-effect5"
       is_visible="true"
       lpeversion="1"
       nodesatellites_param="F,0,0,1,0,0,0,1 @ F,0,0,1,0,0,0,1 @ F,0,0,1,0,0,0,1"
       radius="0"
       unit="px"
       method="auto"
       mode="F"
       chamfer_steps="1"
       flexible="false"
       use_knot_distance="true"
       apply_no_radius="true"
       apply_with_radius="true"
       only_selected="false"
       hide_knots="false" /><inkscape:path-effect
       effect="fillet_chamfer"
       id="path-effect4"
       is_visible="true"
       lpeversion="1"
       nodesatellites_param="F,0,0,1,0,0,0,1 @ F,0,0,1,0,0,0,1 @ F,0,0,1,0,0,0,1"
       radius="0"
       unit="px"
       method="auto"
       mode="F"
       chamfer_steps="1"
       flexible="false"
       use_knot_distance="true"
       apply_no_radius="true"
       apply_with_radius="true"
       only_selected="false"
       hide_knots="false" /><inkscape:path-effect
       effect="fillet_chamfer"
       id="path-effect3"
       is_visible="true"
       lpeversion="1"
       nodesatellites_param="F,0,0,1,0,0,0,1 @ F,0,0,1,0,0,0,1 @ F,0,0,1,0,0,0,1"
       radius="0"
       unit="px"
       method="auto"
       mode="F"
       chamfer_steps="1"
       flexible="false"
       use_knot_distance="true"
       apply_no_radius="true"
       apply_with_radius="true"
       only_selected="false"
       hide_knots="false" /><inkscape:path-effect
       effect="fillet_chamfer"
       id="path-effect2"
       is_visible="true"
       lpeversion="1"
       nodesatellites_param="F,0,0,1,0,0,0,1 @ F,0,0,1,0,0,0,1 @ F,0,0,1,0,0,0,1"
       radius="0"
       unit="px"
       method="auto"
       mode="F"
       chamfer_steps="1"
       flexible="false"
       use_knot_distance="true"
       apply_no_radius="true"
       apply_with_radius="true"
       only_selected="false"
       hide_knots="false" /><inkscape:path-effect
       effect="fillet_chamfer"
       id="path-effect1"
       is_visible="true"
       lpeversion="1"
       nodesatellites_param="F,0,0,1,0,0,0,1 @ F,0,0,1,0,0,0,1 @ F,0,0,1,0,0,0,1"
       radius="0"
       unit="px"
       method="auto"
       mode="F"
       chamfer_steps="1"
       flexible="false"
       use_knot_distance="true"
       apply_no_radius="true"
       apply_with_radius="true"
       only_selected="false"
       hide_knots="false" /></defs><g
     inkscape:label="Warstwa 1"
     inkscape:groupmode="layer"
     id="layer1"><g
       inkscape:groupmode="layer"
       id="layer6"
       inkscape:label="cut line"
       style="display:inline"><path
         style="display:inline;fill:none;fill-opacity:1;stroke:#ff0000;stroke-width:0.1;stroke-linecap:round;stroke-linejoin:round;stroke-opacity:1"
         d="m 80.412146,66.191309 c -0.503505,0.01 -1.009372,0.148831 -1.465544,0.424263 -1.216448,0.73448 -1.736367,2.231646 -1.237133,3.562057 -4.0518,0.163446 -7.221928,3.563909 -7.131348,7.645011 0.09058,4.081102 3.412753,7.33679 7.467761,7.3179 4.123248,0.01194 7.398883,3.351066 7.406783,7.470861 0.0045,2.329531 -1.081493,4.432682 -2.75022,5.808948 -0.178377,0.147941 -0.200171,0.386991 -0.07803,0.583944 0.122139,0.196963 0.350424,0.280591 0.594279,0.201021 5.72537,-2.119319 9.808187,-7.62537 9.808187,-14.086995 0,-6.610801 -4.252058,-12.161815 -10.206612,-14.218254 0.870295,-1.123302 0.800185,-2.659371 -0.144694,-3.720703 -0.590552,-0.663331 -1.424259,-1.004656 -2.263428,-0.988053 z"
         id="path69"
         inkscape:label="yang outline" /><path
         style="color:#000000;display:inline;fill:none;fill-opacity:1;stroke:#ff0000;stroke-width:0.1;stroke-linecap:round;stroke-linejoin:round;stroke-dasharray:none;stroke-opacity:1"
         d="m 82.702229,98.420394 c -1.282436,1.057679 -2.898956,1.678086 -4.690701,1.690126 -8.294725,0 -15.01934,-6.675169 -15.019341,-14.969895 0,-3.193791 0.98684,-6.115372 2.668293,-8.532991 -1.37849,-0.367804 -2.244609,-1.655017 -2.128228,-3.076977 0.116382,-1.421959 1.233593,-2.556908 2.653543,-2.695672 1.41995,-0.138764 2.709889,0.712412 3.099361,2.084937 1.066692,-0.76232 2.249972,-1.3402 3.494381,-1.80707 0.213439,-0.09616 0.465033,-0.01813 0.586713,0.181955 0.12168,0.200088 0.07532,0.459539 -0.10812,0.605034"
         id="path2"
         sodipodi:nodetypes="ccscssccsc"
         inkscape:label="yin outline" /><path
         style="display:inline;fill:none;fill-opacity:1;stroke:#ff0000;stroke-width:0.1;stroke-linecap:round;stroke-linejoin:round;stroke-opacity:1"
         d="m 80.491726,67.960193 c 0.663239,7.8e-5 1.200882,0.537721 1.20096,1.20096 -7.8e-5,0.663239 -0.537721,1.200882 -1.20096,1.20096 -0.663441,2.07e-4 -1.201399,-0.537519 -1.201477,-1.20096 7.8e-5,-0.663441 0.538036,-1.201167 1.201477,-1.20096 z"
         id="path4"
         inkscape:label="yang inner ear" /><path
         style="color:#000000;display:inline;fill:none;fill-opacity:1;stroke:#ff0000;stroke-width:0.1;stroke-dasharray:none;stroke-opacity:1"
         d="m 66.492187,72.539062 c -0.690371,0 -1.25,0.561582 -1.25,1.251954 0,0.690371 0.559629,1.251953 1.25,1.251953 0.690372,0 1.251954,-0.561582 1.251954,-1.251953 0,-0.690372 -0.561582,-1.251954 -1.251954,-1.251954 z"
         id="path61"
         inkscape:label="yin inner ear" /></g><g
       inkscape:groupmode="layer"
       id="layer3"
       inkscape:label="graver line"
       style="display:inline"><path
         style="display:inline;fill:none;fill-opacity:1;stroke:#00e000;stroke-width:0.1;stroke-linecap:round;stroke-linejoin:round;stroke-opacity:1"
         d="m 88.557383,87.745032 0.448552,1.088305 1.150834,0.247531 -0.896586,0.762744 0.120406,1.170988 -1.002523,-0.617017 -1.07642,0.476457 0.276469,-1.144116 -0.785482,-0.876433 1.173572,-0.09043 z"
         id="path10"
         inkscape:label="star 4" /><path
         style="display:inline;fill:none;fill-opacity:1;stroke:#00e000;stroke-width:0.1;stroke-linecap:round;stroke-linejoin:round;stroke-opacity:1"
         d="m 75.844981,80.915474 0.318843,0.77463 0.819072,0.1757 -0.637687,0.542603 0.08527,0.833024 -0.713135,-0.438733 -0.765845,0.338997 0.196888,-0.813904 -0.558623,-0.623734 0.834575,-0.06408 z"
         id="path9"
         inkscape:label="star 3" /><path
         style="display:inline;fill:none;fill-opacity:1;stroke:#00e000;stroke-width:0.1;stroke-linecap:round;stroke-linejoin:round;stroke-opacity:1"
         d="m 88.557383,80.443669 0.448552,1.088305 1.150834,0.24753 -0.896586,0.762745 0.120406,1.170987 -1.002523,-0.616499 -1.07642,0.47594 0.276469,-1.144117 -0.785482,-0.876432 1.173572,-0.09043 z"
         id="path8"
         inkscape:label="star 2" /><path
         style="display:inline;fill:none;fill-opacity:1;stroke:#00e000;stroke-width:0.1;stroke-linecap:round;stroke-linejoin:round;stroke-opacity:1"
         d="m 80.70825,73.320072 c 1.371466,0.0127 2.70188,0.671675 3.546554,1.856218 1.228615,1.72297 1.090875,4.082674 -0.329179,5.647717 -1.420055,1.565045 -3.731474,1.90461 -5.531446,0.811837 1.554015,0.34554 3.165158,-0.257711 4.10931,-1.538407 0.944152,-1.280696 1.043726,-2.997933 0.253731,-4.379061 -0.789994,-1.381129 -2.320929,-2.165635 -3.90312,-2.003496 0.59864,-0.272812 1.230756,-0.400581 1.85415,-0.394808 z"
         id="path6"
         inkscape:label="moon" /><path
         style="display:inline;fill:none;fill-opacity:1;stroke:#00e000;stroke-width:0.1;stroke-linecap:round;stroke-linejoin:round;stroke-opacity:1"
         d="m 76.002594,73.059106 0.394291,0.957048 1.012342,0.217558 -0.788583,0.67076 0.105937,1.029911 -0.8816,-0.542602 -0.946712,0.419095 0.243396,-1.00614 -0.690914,-0.771012 1.031978,-0.07906 z"
         id="path5"
         inkscape:label="star 1" /></g><g
       inkscape:groupmode="layer"
       id="layer2"
       inkscape:label="graver fill"
       style="display:inline"><path
         id="path3"
         style="display:inline;fill:#000000;fill-opacity:1;stroke:#000000;stroke-width:0.1;stroke-linecap:round;stroke-linejoin:round;stroke-opacity:1"
         d="m 80.412146,66.191309 c -0.503505,0.01 -1.009372,0.148831 -1.465544,0.424263 -1.216448,0.73448 -1.736367,2.231646 -1.237133,3.562057 -4.0518,0.163446 -7.221928,3.563909 -7.131348,7.645011 0.09058,4.081102 3.412753,7.33679 7.467761,7.3179 4.123248,0.01194 7.398883,3.351066 7.406783,7.470861 0.0045,2.329531 -1.081493,4.432682 -2.75022,5.808948 -0.178377,0.147941 -0.200171,0.386991 -0.07803,0.583944 0.122139,0.196963 0.350424,0.280591 0.594279,0.201021 5.72537,-2.119319 9.808187,-7.62537 9.808187,-14.086995 0,-6.610801 -4.252058,-12.161815 -10.206612,-14.218254 0.870295,-1.123302 0.800185,-2.659371 -0.144694,-3.720703 -0.590552,-0.663331 -1.424259,-1.004656 -2.263428,-0.988053 z m 0.07958,1.768884 c 0.663239,7.8e-5 1.200882,0.537721 1.20096,1.20096 -7.8e-5,0.663239 -0.537721,1.200882 -1.20096,1.20096 -0.663441,2.07e-4 -1.201399,-0.537519 -1.201477,-1.20096 7.8e-5,-0.663441 0.538036,-1.201167 1.201477,-1.20096 z m -4.489132,5.098913 0.394291,0.957048 1.012342,0.217558 -0.788583,0.67076 0.105937,1.029911 -0.8816,-0.542602 -0.946712,0.419095 0.243396,-1.00614 -0.690914,-0.771012 1.031978,-0.07906 z m 4.705656,0.260966 c 1.371466,0.0127 2.70188,0.671675 3.546554,1.856218 1.228615,1.72297 1.090875,4.082674 -0.329179,5.647717 -1.420055,1.565045 -3.731474,1.90461 -5.531446,0.811837 1.554015,0.34554 3.165158,-0.257711 4.10931,-1.538407 0.944152,-1.280696 1.043726,-2.997933 0.253731,-4.379061 -0.789994,-1.381129 -2.320929,-2.165635 -3.90312,-2.003496 0.59864,-0.272812 1.230756,-0.400581 1.85415,-0.394808 z m 7.849133,7.123597 0.448552,1.088305 1.150834,0.24753 -0.896586,0.762745 0.120406,1.170987 -1.002523,-0.616499 -1.07642,0.47594 0.276469,-1.144117 -0.785482,-0.876432 1.173572,-0.09043 z m -12.712402,0.471805 0.318843,0.77463 0.819072,0.1757 -0.637687,0.542603 0.08527,0.833024 -0.713135,-0.438733 -0.765845,0.338997 0.196888,-0.813904 -0.558623,-0.623734 0.834575,-0.06408 z m 12.712402,6.829558 0.448552,1.088305 1.150834,0.247531 -0.896586,0.762744 0.120406,1.170988 -1.002523,-0.617017 -1.07642,0.476457 0.276469,-1.144116 -0.785482,-0.876433 1.173572,-0.09043 z"
         inkscape:label="yang filled outline"
         sodipodi:nodetypes="sscscccscscsssccccccccccccccccssscsscsccccccccccccccccccccccccccccccccc" /></g><g
       inkscape:groupmode="layer"
       id="layer7"
       inkscape:label="graver offset fill"
       style="display:inline"><g
         id="path7"
         inkscape:label="sun"
         style="display:inline"><g
           inkscape:groupmode="layer"
           id="layer4"
           inkscape:label="rays"
           inkscape:highlight-color="#3b80ee"><path
             style="color:#000000;display:inline;fill:#0000ff;stroke:none;stroke-width:0.1;stroke-linecap:round;stroke-linejoin:round;stroke-dasharray:none"
             d="m 114.82031,26.951172 c -0.12694,0 -0.23047,0.103523 -0.23047,0.230469 v 2.095703 c 0,0.126945 0.10353,0.230469 0.23047,0.230468 0.12695,0 0.23047,-0.103523 0.23047,-0.230468 v -2.095703 c 0,-0.126946 -0.10352,-0.230469 -0.23047,-0.230469 z"
             id="path49"
             transform="rotate(34.182197)"
             sodipodi:nodetypes="sssssss" /><path
             style="color:#000000;display:inline;fill:#0000ff;stroke:none;stroke-width:0.100005;stroke-linecap:round;stroke-linejoin:round;stroke-dasharray:none"
             d="m 106.79688,46.640625 c -0.0551,0 -0.10524,0.01565 -0.14454,0.04297 -0.0393,0.02732 -0.0703,0.06937 -0.0703,0.11914 v 1.359375 c 0,0.04977 0.031,0.09182 0.0703,0.119141 0.0393,0.02732 0.0894,0.04297 0.14454,0.04297 0.0551,0 0.10523,-0.01565 0.14453,-0.04297 0.0393,-0.02732 0.0684,-0.06937 0.0684,-0.119141 v -1.359375 c 0,-0.04977 -0.0291,-0.09182 -0.0684,-0.11914 -0.0393,-0.02732 -0.0894,-0.04297 -0.14453,-0.04297 z"
             id="path47"
             transform="matrix(0.90981456,0.41501502,-0.40176908,0.91574101,0,0)"
             sodipodi:nodetypes="sssssssssss" /><path
             style="color:#000000;display:inline;fill:#0000ff;stroke:none;stroke-width:0.100005;stroke-linecap:round;stroke-linejoin:round;stroke-dasharray:none"
             d="m -90.322266,73.53125 c -0.05509,0 -0.105237,0.01565 -0.144531,0.04297 -0.03929,0.02732 -0.06836,0.06937 -0.06836,0.11914 v 1.359375 c 0,0.04977 0.02907,0.09377 0.06836,0.121094 0.03929,0.02732 0.08945,0.04102 0.144531,0.04102 0.05509,0 0.105238,-0.01369 0.144532,-0.04102 0.03929,-0.02732 0.06836,-0.07132 0.06836,-0.121094 V 73.69336 c 0,-0.04977 -0.02907,-0.09182 -0.06836,-0.11914 -0.03929,-0.02732 -0.08945,-0.04297 -0.144532,-0.04297 z"
             id="path45"
             transform="matrix(0.03284581,-0.99946042,0.99983182,0.01833926,0,0)"
             sodipodi:nodetypes="sssssssssss" /><path
             style="color:#000000;display:inline;fill:#0000ff;stroke:none;stroke-width:0.100005;stroke-linecap:round;stroke-linejoin:round;stroke-dasharray:none"
             d="m 77.046875,84.736328 c -0.05509,0 -0.107191,0.01565 -0.146484,0.04297 -0.03929,0.02732 -0.06836,0.06937 -0.06836,0.11914 v 1.359375 c 0,0.04977 0.02907,0.09377 0.06836,0.121094 0.03929,0.02732 0.0914,0.04102 0.146484,0.04102 0.05509,0 0.105238,-0.01369 0.144531,-0.04102 0.03929,-0.02732 0.06836,-0.07132 0.06836,-0.121094 v -1.359375 c 0,-0.04977 -0.02907,-0.09182 -0.06836,-0.11914 -0.03929,-0.02732 -0.08945,-0.04297 -0.144531,-0.04297 z"
             id="path43"
             transform="matrix(0.99974371,0.02263897,-0.00812939,0.99996696,0,0)"
             sodipodi:nodetypes="sssssssssss" /><path
             style="color:#000000;display:inline;fill:#0000ff;stroke:none;stroke-width:0.100014;stroke-linecap:round;stroke-linejoin:round;stroke-dasharray:none"
             d="m 60.972656,95.408203 c -0.115425,0 -0.21289,0.08844 -0.21289,0.201172 v 1.748047 c 0,0.112728 0.09746,0.201172 0.21289,0.201172 0.115425,0 0.214844,-0.08844 0.214844,-0.201172 v -1.748047 c 0,-0.112728 -0.09942,-0.201172 -0.214844,-0.201172 z"
             id="path41"
             transform="matrix(0.99128368,-0.1317447,0.15540356,0.98785106,0,0)"
             sodipodi:nodetypes="sssssss" /><path
             style="color:#000000;display:inline;fill:#0000ff;stroke:none;stroke-width:0.100005;stroke-linecap:round;stroke-linejoin:round;stroke-dasharray:none"
             d="m 32.882812,108.83594 c -0.05508,0 -0.105237,0.0137 -0.144531,0.041 -0.03929,0.0273 -0.06836,0.0713 -0.06836,0.1211 v 1.35937 c 0,0.0498 0.02907,0.0918 0.06836,0.11914 0.03929,0.0273 0.08945,0.043 0.144531,0.043 0.05509,0 0.105238,-0.0157 0.144532,-0.043 0.03929,-0.0273 0.06836,-0.0694 0.06836,-0.11914 v -1.35937 c 0,-0.0498 -0.02907,-0.0938 -0.06836,-0.1211 -0.03929,-0.0273 -0.08945,-0.041 -0.144532,-0.041 z"
             id="path39"
             transform="matrix(0.92069806,-0.39027568,0.40359476,0.91493784,0,0)"
             sodipodi:nodetypes="sssscssssss" /><path
             style="color:#000000;display:inline;fill:#0000ff;stroke:none;stroke-width:0.100005;stroke-linecap:round;stroke-linejoin:round;stroke-dasharray:none"
             d="m -9.5683594,113.58008 c -0.055085,0 -0.1052375,0.0156 -0.1445312,0.043 -0.039294,0.0273 -0.068359,0.0694 -0.068359,0.11914 v 1.35937 c 0,0.0498 0.029066,0.0918 0.068359,0.11914 0.039294,0.0273 0.089446,0.043 0.1445312,0.043 0.055085,0 0.1071907,-0.0156 0.1464844,-0.043 0.039294,-0.0273 0.068359,-0.0694 0.068359,-0.11914 v -1.35937 c 0,-0.0498 -0.029066,-0.0918 -0.068359,-0.11914 -0.039294,-0.0273 -0.091399,-0.043 -0.1464844,-0.043 z"
             id="path37"
             transform="matrix(0.72548615,-0.68823676,0.69869177,0.71542283,0,0)"
             sodipodi:nodetypes="scsscscsscs" /><path
             style="color:#000000;display:inline;fill:#0000ff;stroke:none;stroke-width:0.100093;stroke-linecap:round;stroke-linejoin:round;stroke-dasharray:none"
             d="m 118.95703,5.5527344 c -0.054,0 -0.10403,0.016286 -0.14258,0.042969 -0.0386,0.026683 -0.0664,0.06844 -0.0664,0.1171875 v 1.328125 c 0,0.048747 0.0278,0.090505 0.0664,0.1171875 0.0386,0.026683 0.0886,0.041016 0.14258,0.041016 0.054,0 0.10403,-0.014333 0.14258,-0.041016 0.0386,-0.026682 0.0664,-0.06844 0.0664,-0.1171875 v -1.328125 c 0,-0.048747 -0.0279,-0.090505 -0.0664,-0.1171875 -0.0386,-0.026682 -0.0886,-0.042969 -0.14258,-0.042969 z"
             id="path31"
             transform="matrix(0.6483536,0.76133934,-0.72050288,0.69345196,0,0)"
             sodipodi:nodetypes="scsssscsscs" /><path
             style="color:#000000;display:inline;fill:#0000ff;stroke:none;stroke-width:0.100005;stroke-linecap:round;stroke-linejoin:round;stroke-dasharray:none"
             d="m -48.138672,104.375 c -0.05508,0 -0.107191,0.0156 -0.146484,0.043 -0.03929,0.0273 -0.06836,0.0694 -0.06836,0.11914 v 1.36133 c 0,0.0498 0.02907,0.0918 0.06836,0.11914 0.03929,0.0273 0.0914,0.043 0.146484,0.043 0.05508,0 0.105238,-0.0157 0.144531,-0.043 0.03929,-0.0273 0.06836,-0.0694 0.06836,-0.11914 v -1.36133 c 0,-0.0498 -0.02907,-0.0918 -0.06836,-0.11914 -0.03929,-0.0273 -0.08945,-0.043 -0.144531,-0.043 z"
             id="path35"
             transform="matrix(0.4612949,-0.88724687,0.89384727,0.44837157,0,0)"
             sodipodi:nodetypes="scsscsssscs" /><path
             style="color:#000000;display:inline;fill:#0000ff;stroke:none;stroke-width:0.100005;stroke-linecap:round;stroke-linejoin:round;stroke-dasharray:none"
             d="m -114.07031,30.166016 c -0.0551,0 -0.10524,0.01369 -0.14453,0.04102 -0.0393,0.02732 -0.0684,0.07132 -0.0684,0.121094 v 1.35937 c 0,0.04977 0.0291,0.09182 0.0684,0.119141 0.0393,0.02732 0.0894,0.04297 0.14453,0.04297 0.0551,0 0.10524,-0.01565 0.14453,-0.04297 0.0393,-0.02732 0.0684,-0.06937 0.0684,-0.119141 v -1.359375 c 0,-0.04977 -0.0291,-0.09377 -0.0684,-0.121094 -0.0393,-0.02732 -0.0894,-0.04102 -0.14453,-0.04102 z"
             id="path33"
             transform="matrix(-0.37785371,-0.92586532,0.92028481,-0.39124909,0,0)"
             sodipodi:nodetypes="ssssssssssss" /><path
             style="color:#000000;display:inline;fill:#0000ff;stroke:none;stroke-width:0.100003;stroke-linecap:round;stroke-linejoin:round;stroke-dasharray:none"
             d="m 12.640625,112.02148 c -0.144964,0 -0.267578,0.10972 -0.267578,0.25 l 0,2.33008 c 0,0.14028 0.122614,0.25 0.267578,0.25 0.144964,0 0.267578,-0.10972 0.267578,-0.25 v -2.33008 c 0,-0.14028 -0.122614,-0.25 -0.267578,-0.25 z"
             id="path29"
             transform="matrix(0.83886789,-0.54433504,0.55416601,0.83240615,0,0)"
             sodipodi:nodetypes="sssssss" /><path
             style="color:#000000;display:inline;fill:#0000ff;stroke:none;stroke-width:0.10007;stroke-linecap:round;stroke-linejoin:round;stroke-dasharray:none"
             d="m 112.55273,50.623047 c -0.0487,0 -0.0921,0.0119 -0.12695,0.03516 -0.0349,0.02326 -0.0625,0.05997 -0.0625,0.103516 v 1.164062 c 0,0.04355 0.0276,0.08026 0.0625,0.103516 0.0349,0.02326 0.0782,0.03516 0.12695,0.03516 0.0487,0 0.094,-0.0119 0.12891,-0.03516 0.0349,-0.02326 0.0625,-0.05997 0.0625,-0.103516 v -1.164062 c 0,-0.04355 -0.0276,-0.08026 -0.0625,-0.103516 -0.0349,-0.02326 -0.0802,-0.03516 -0.12891,-0.03516 z"
             id="path27"
             transform="matrix(0.88715861,0.46146466,-0.50772393,0.86151982,0,0)"
             sodipodi:nodetypes="scsssssssss" /><path
             style="color:#000000;display:inline;fill:#0000ff;stroke:none;stroke-width:0.100291;stroke-linecap:round;stroke-linejoin:round;stroke-dasharray:none"
             d="m -23.701172,108.0332 c -0.138667,0 -0.257812,0.10241 -0.257812,0.23438 v 2.12305 c 0,0.13196 0.119145,0.23242 0.257812,0.23242 0.138668,0 0.257813,-0.10046 0.257813,-0.23242 v -2.12305 c 0,-0.13197 -0.119145,-0.23438 -0.257813,-0.23438 z"
             id="path25"
             transform="matrix(0.54304663,-0.83970254,0.77647416,0.6301491,0,0)"
             sodipodi:nodetypes="sssssss" /><path
             style="color:#000000;display:inline;fill:#0000ff;stroke:none;stroke-width:0.100043;stroke-linecap:round;stroke-linejoin:round;stroke-dasharray:none"
             d="m -63.583984,97.105469 c -0.144519,0 -0.265625,0.113046 -0.265625,0.253906 v 2.349609 c 0,0.140861 0.121106,0.253907 0.265625,0.253907 0.144519,0 0.265625,-0.113046 0.265625,-0.253907 v -2.349609 c 0,-0.14086 -0.121106,-0.253906 -0.265625,-0.253906 z"
             id="path23"
             transform="matrix(0.35456387,-0.93503181,0.94899792,0.31528234,0,0)"
             sodipodi:nodetypes="sssssss" /><path
             style="color:#000000;display:inline;fill:#0000ff;stroke:none;stroke-width:0.10005;stroke-linecap:round;stroke-linejoin:round;stroke-dasharray:none"
             d="m -95.205078,70.466797 c -0.143119,0 -0.265625,0.100684 -0.265625,0.234375 v 2.132812 c 0,0.133691 0.122506,0.234375 0.265625,0.234375 0.143118,0 0.267578,-0.100684 0.267578,-0.234375 v -2.132812 c 0,-0.133691 -0.12446,-0.234375 -0.267578,-0.234375 z"
             id="path21"
             transform="matrix(0.00711886,-0.99997466,0.99929437,-0.03756044,0,0)"
             sodipodi:nodetypes="sssssss" /><path
             style="color:#000000;display:inline;fill:#0000ff;stroke:none;stroke-width:0.100133;stroke-linecap:round;stroke-linejoin:round;stroke-dasharray:none"
             d="m -117.20117,26.638672 c -0.13468,0 -0.25,0.102088 -0.25,0.232422 v 2.115234 c 0,0.130334 0.11532,0.232422 0.25,0.232422 0.13468,0 0.24804,-0.102088 0.24804,-0.232422 v -2.115234 c 0,-0.130334 -0.11336,-0.232422 -0.24804,-0.232422 z"
             id="path19"
             transform="matrix(-0.39965019,-0.91666772,0.8850776,-0.46544346,0,0)"
             sodipodi:nodetypes="sssssss" /><path
             style="color:#000000;display:inline;fill:#0000ff;stroke:none;stroke-width:0.100018;stroke-linecap:round;stroke-linejoin:round;stroke-dasharray:none"
             d="m -117.08008,-26.626953 c -0.11925,0 -0.2207,0.08924 -0.2207,0.205078 v 1.806641 c 0,0.115842 0.10145,0.207031 0.2207,0.207031 0.11925,0 0.22071,-0.09119 0.2207,-0.207031 v -1.806641 c 0,-0.115842 -0.10145,-0.205078 -0.2207,-0.205078 z"
             id="path17"
             transform="matrix(-0.76020824,-0.64967951,0.62883058,-0.77754234,0,0)"
             sodipodi:nodetypes="sssscss" /><path
             style="color:#000000;display:inline;fill:#0000ff;stroke:none;stroke-width:0.100014;stroke-linecap:round;stroke-linejoin:round;stroke-dasharray:none"
             d="m 91.916016,68.228516 c -0.116032,0 -0.207032,0.09867 -0.207032,0.216796 l 0,1.941407 c 0,0.118123 0.091,0.216797 0.207032,0.216797 0.116031,0 0.208984,-0.09867 0.208984,-0.216797 v -1.941407 c 0,-0.118123 -0.09295,-0.216796 -0.208984,-0.216796 z"
             id="path15"
             transform="matrix(0.97858151,0.20585969,-0.18268689,0.98317113,0,0)"
             sodipodi:nodetypes="sssssss" /></g><path
           style="color:#000000;display:inline;fill:#0000ff;stroke:none;stroke-width:0.1;stroke-linejoin:round;stroke-dasharray:none;stroke-opacity:1"
           d="m 85.308542,90.992419 c 0,0 -0.161036,0.06286 -0.351084,0.162601 -0.190047,0.09974 -0.447107,0.209262 -0.554105,0.360888 -0.101671,0.144074 -0.167127,0.369651 -0.18547,0.537963 -0.01834,0.168312 -0.04468,0.312869 -0.08687,0.460989 -0.07462,0.262006 -0.100812,0.49195 -0.227623,0.72078 -0.09369,0.16906 -0.210297,0.347785 -0.353542,0.480418 -0.109367,0.101265 -0.167329,0.170691 -0.299939,0.225631 -0.123179,0.05104 -0.239912,0.07518 -0.391672,0.08296 -0.15176,0.0078 -0.402736,-0.02124 -0.524241,0.08501 -0.307558,0.268954 -0.319127,0.365031 -0.525082,0.587698 -0.465443,0.503208 -0.802717,0.925118 -1.390908,1.252184 -0.165064,0.09178 -0.331486,0.119509 -0.533267,0.154309 -0.201781,0.0348 -0.508866,0.146875 -0.691188,0.255693 -0.326782,0.195039 -0.473172,0.511915 -0.733282,0.745862 -0.133959,0.120485 -0.232041,0.260694 -0.377995,0.320426 -0.339235,0.13884 -0.653413,0.13125 -1.050472,0.110287 -0.397058,-0.02096 -0.893029,-0.04834 -1.248497,0.13207 -0.308609,0.156623 -0.51198,0.56885 -0.729332,0.781121 -0.376281,0.367488 -1.205259,1.080771 -1.205259,1.080771 l 0.308849,0.07967 c 0,0 0.780143,-0.640677 1.165505,-1.017032 0.240705,-0.23508 0.342216,-0.543678 0.60455,-0.676816 0.325845,-0.165371 0.677406,-0.139097 1.073313,-0.118196 0.395907,0.0209 0.831084,0.01921 1.198954,-0.131351 0.177413,-0.07261 0.312474,-0.237238 0.438298,-0.350407 0.278268,-0.250278 0.441239,-0.570149 0.736234,-0.746216 0.161775,-0.09655 0.33486,-0.122525 0.536178,-0.157245 0.201318,-0.03472 0.426861,-0.07941 0.61202,-0.18237 0.608441,-0.338326 1.087233,-0.887908 1.551501,-1.389845 0.141618,-0.155539 0.244008,-0.338835 0.413467,-0.459035 0.132064,-0.09368 0.215426,-0.06368 0.36482,-0.07134 0.149393,-0.0077 0.296459,-0.01627 0.443385,-0.07713 0.148876,-0.06168 0.338303,-0.217377 0.452505,-0.32312 0.149759,-0.138664 0.265897,-0.28418 0.365764,-0.46439 0.135767,-0.24499 0.202602,-0.538819 0.276361,-0.797807 0.04685,-0.16448 0.05821,-0.322719 0.07598,-0.485918 0.01779,-0.1632 0.04501,-0.295565 0.130746,-0.417058 0.08471,-0.120038 0.252522,-0.227716 0.437288,-0.324691 0.184767,-0.09697 0.295317,-0.143685 0.295317,-0.143685 z"
           id="path13"
           sodipodi:nodetypes="cssssssssssssssssssccsssssssssscssssssscc"
           inkscape:label="under sun path 2" /><path
           id="path14"
           style="fill:#0000ff;stroke:none;stroke-width:0.106575"
           d="m 75.756226,95.801627 c -1.59824,-0.291249 -2.811087,-1.604596 -2.97445,-3.220922 -0.163363,-1.616326 0.762158,-3.145799 2.269796,-3.750962 1.507639,-0.605163 3.233779,-0.14006 4.233276,1.140644"
           sodipodi:nodetypes="cssc" /><path
           id="path16"
           style="fill:#0000ff;stroke:none;stroke-width:0.106575"
           d="m 76.354527,88.567207 -1.4e-5,-3e-6 c -0.437564,0.0065 -0.87874,0.09231 -1.302763,0.262516 -1.507637,0.605162 -2.433509,2.134868 -2.270146,3.751192 0.163363,1.616325 1.376257,2.929227 2.960895,3.243035 -0.02592,0.02596 -0.08492,0.03895 -0.235236,0.108979 -0.147976,0.06893 -0.165478,0.03346 -0.445611,0.267199 -0.158551,0.132295 -0.146464,0.224151 -0.172804,0.527205 -0.01469,0.169014 -0.0091,0.264294 -0.08253,0.362065 -0.06345,0.08448 -0.07517,0.102366 -0.277682,0.204343 -0.128888,0.0649 -0.374612,0.148055 -0.486309,0.27754 -0.199744,0.231555 -0.228072,0.579095 -0.341169,0.772226 -0.18375,0.313778 -0.688194,0.892627 -0.688194,0.892627 -0.02119,0.02716 0.06823,0.0521 0.100852,0.06312 l 0.08728,0.0296 c 0.01873,0.0063 0.07482,0.04386 0.08815,0.02929 0,0 0.501604,-0.538036 0.710706,-0.895108 0.148776,-0.254057 0.147373,-0.501114 0.28597,-0.661784 0.03704,-0.04294 0.08449,-0.104241 0.122233,-0.123371 0.03774,-0.01913 0.08752,-0.03707 0.15625,-0.06641 0.133069,-0.05679 0.324285,-0.1266 0.431641,-0.269531 0.120217,-0.160055 0.139832,-0.388088 0.15625,-0.556641 0.0167,-0.171384 0.01459,-0.28588 0.0918,-0.378906 0.05086,-0.06127 0.175709,-0.107482 0.320312,-0.166016 0.141696,-0.05736 0.1875,-0.07031 0.1875,-0.07031 0.0013,-6.09e-4 0.0026,-0.0013 0.0039,-0.002 l 0.06641,-0.02539 0.08203,-0.02344 c 0.002,-5.43e-4 0.004,-0.0012 0.0059,-0.002 0,0 0.509679,-0.208817 0.779297,-0.392578 0.238396,-0.16248 0.485214,-0.372115 0.654297,-0.61914 0.2672,-0.390373 0.419759,-0.881067 0.535156,-1.322266 0.05509,-0.210622 0.09839,-0.480638 0.101462,-0.676622 0.0031,-0.195984 0.04293,-0.368379 0.113213,-0.530294 0.0594,-0.136837 0.08433,-0.194657 0.209151,-0.314568 0.125733,-0.120781 0.270631,-0.256884 0.367188,-0.423828 0.140447,-0.24283 0.248877,-0.507849 0.298828,-0.78711 0.01624,-0.09081 -0.0095,-0.19956 -0.01953,-0.255859 -0.0056,-0.03121 -0.0096,-0.05068 -0.0098,-0.05273 -1.59e-4,-0.0021 -0.0039,0.0091 0.0039,-0.002 0.0161,-0.02284 0.0104,-0.0204 0.04102,-0.0293 0.006,-0.0017 0.01915,-0.0026 0.04102,0 0.02187,0.0026 0.05132,0.0088 0.08398,0.0059 0.10628,-0.0097 0.250906,-0.03984 0.337891,-0.152344 0.168396,-0.217803 0.132943,-0.529208 0.103515,-0.771484 -0.02946,-0.242571 -0.05849,-0.434576 0.02148,-0.59961 0.06956,-0.143544 0.25244,-0.258864 0.43164,-0.375 0.1806,-0.117043 0.367436,-0.258238 0.458985,-0.476562 0.0698,-0.166466 0.140189,-0.410947 0.122659,-0.58571 -0.01648,-0.164305 -0.02574,-0.18508 -0.034,-0.287349 0.0021,-0.111901 -0.02481,-0.134843 0.04215,-0.230582 0.0265,-0.03789 0.146052,-0.122578 0.219881,-0.178982 0.343337,-0.225214 0.317701,-0.224446 0.558384,-0.334553 0.346644,-0.158582 0.388384,-0.150816 0.612051,-0.249909 l 0.174153,-0.07935 c 0.02764,-0.02123 -0.08172,-0.08393 -0.111245,-0.102438 -0.03894,-0.01931 -0.03334,-0.02972 -0.06841,-0.05425 l 1.1e-5,-10e-7 c -0.10687,4.29e-4 -0.153205,-0.01135 -0.239345,0.02835 -0.01799,0.0057 -0.172541,0.06822 -0.447438,0.185259 -0.287376,0.122357 -0.652502,0.28129 -0.837813,0.487312 -0.07409,0.08237 -0.142028,0.198624 -0.183099,0.29156 -0.04363,0.09874 -0.01746,0.212982 -0.01746,0.212982 0.01115,0.14854 0.01833,0.05138 0.04936,0.360895 0.01653,0.164823 -0.06652,0.302609 -0.101986,0.387207 -0.06242,0.148861 -0.165874,0.239787 -0.342969,0.354558 -0.176933,0.114666 -0.460569,0.307509 -0.564266,0.521495 -0.11595,0.23928 -0.07602,0.502996 -8.8e-5,0.86745 -0.704173,-0.786682 -1.820626,-1.385311 -2.938844,-1.368576 z"
           sodipodi:nodetypes="sssscsssssssccccsssssssscccccssscssssccccscsssssscscscccsscssscsssscs" /></g></g></g></svg>
