<?xml version="1.0" encoding="UTF-8" standalone="no"?>
<!-- Created with Inkscape (http://www.inkscape.org/) -->

<svg
   width="210mm"
   height="297mm"
   viewBox="0 0 210 297"
   version="1.1"
   id="svg1"
   xml:space="preserve"
   inkscape:version="1.3.2 (091e20e, 2023-11-25, custom)"
   sodipodi:docname="fiat_logo.svg"
   xmlns:inkscape="http://www.inkscape.org/namespaces/inkscape"
   xmlns:sodipodi="http://sodipodi.sourceforge.net/DTD/sodipodi-0.dtd"
   xmlns="http://www.w3.org/2000/svg"
   xmlns:svg="http://www.w3.org/2000/svg"><sodipodi:namedview
     id="namedview1"
     pagecolor="#ffffff"
     bordercolor="#000000"
     borderopacity="0.25"
     inkscape:showpageshadow="2"
     inkscape:pageopacity="0.0"
     inkscape:pagecheckerboard="0"
     inkscape:deskcolor="#d1d1d1"
     inkscape:document-units="mm"
     inkscape:zoom="0.53896605"
     inkscape:cx="61.228346"
     inkscape:cy="-179.97423"
     inkscape:window-width="2560"
     inkscape:window-height="1494"
     inkscape:window-x="-11"
     inkscape:window-y="-11"
     inkscape:window-maximized="1"
     inkscape:current-layer="layer1"
     showgrid="false" /><defs
     id="defs1" /><g
     inkscape:label="Layer 1"
     inkscape:groupmode="layer"
     id="layer1"><path
       style="fill:none;stroke:#0000ff"
       d="M 71.874491,162.48829 C 42.148056,158.99684 15.19791,138.13343 5.0391592,109.85485 -6.0192607,80.884897 1.4473601,46.049971 23.508052,24.24195 46.239861,0.56110157 83.793787,-6.7027638 113.74971,6.6655558 c 30.19571,12.6981082 50.91065,45.0777952 48.98562,77.8966252 0.24156,11.492135 -3.57354,22.794279 -8.3251,33.126839 -11.64515,24.12736 -35.95706,41.09275 -62.384297,44.74241 -6.69131,0.28733 -13.454335,0.35799 -20.151442,0.0569 z m 19.248422,-1.59541 c 4.767793,-0.0932 6.398676,-1.69959 0.520129,-1.81482 -4.071297,0.45344 -8.451384,-3.9016 -12.079692,-1.69252 -3.26758,1.55229 -7.939214,4.78731 -0.971186,3.99406 4.179523,0.0326 8.371206,-0.0511 12.530749,-0.48672 z M 68.027968,160.0338 c -4.943624,-1.7181 -8.909683,-7.42918 -13.793948,-8.01119 -3.610601,0.44112 -10.337271,1.64345 -2.744566,3.64497 5.301483,1.74187 11.135666,4.32727 16.538514,4.36622 z m 7.832411,-2.22863 c 8.819035,-2.78227 -9.005754,-4.91298 -0.0646,-7.50791 2.622298,-2.28253 -5.092044,-4.60172 -7.874252,-4.6149 -4.302551,0.1585 -14.99547,-2.24349 -14.65925,1.75397 5.382244,5.30847 11.708364,9.93565 18.988031,12.21662 1.285368,-0.44508 2.43799,-1.17609 3.610074,-1.84778 z m 29.753671,-0.11481 c 3.85963,-1.25996 15.90764,-5.69031 14.27251,-7.19224 -4.33882,1.90015 -10.41536,-0.17574 -13.98328,2.58891 -1.42301,2.3674 -7.732669,7.71938 -0.28923,4.60333 z m -3.63573,-2.12721 c 8.05335,-6.26969 -9.886702,-2.02786 -2.238504,-7.5917 1.290094,-2.91125 -6.341105,-2.65829 -8.928677,-1.56616 -3.82859,1.44349 -20.396289,4.51683 -10.586578,7.93912 6.192585,2.54041 12.840645,3.94776 19.544392,3.90171 0.736457,-0.89432 1.472907,-1.78865 2.209367,-2.68297 z m -51.687461,-4.25066 c 8.404818,0.1362 -4.997239,-6.48935 -0.04036,-6.65258 9.162806,-0.88686 -4.380898,-8.57586 -7.967431,-9.45216 -3.914463,-1.76151 -14.319538,-6.06935 -8.256746,1.84294 3.575856,5.4605 7.372499,13.42037 14.068573,14.674 l 1.061204,-0.18558 z m -8.368445,-0.75826 c -4.45738,-3.03587 -5.62608,-10.75663 -10.624162,-12.18323 -4.034995,-1.10475 -9.213368,-1.32986 -3.069724,2.77699 4.232742,3.3348 8.941305,7.68505 13.693886,9.40624 z m 75.748206,-1.10108 c 5.29251,-0.20504 8.87307,-2.98285 9.30363,-8.26788 -1.0331,-2.45207 -9.93872,2.84306 -5.26002,-4.25715 -5.14921,-2.36672 -13.21353,5.2425 -17.76955,9.04718 -10.429819,7.52893 10.91725,3.50733 13.72594,3.47785 z m -34.538237,-2.26501 c 10.024225,-2.36371 -16.998495,-3.03512 -4.674306,0.7644 1.488012,1.05083 3.174033,-0.58026 4.674306,-0.7644 z m 47.093487,-2.41819 c 3.34592,-3.20076 11.62395,-9.14047 11.32326,-11.80208 -5.76643,3.83894 -15.09592,5.27554 -14.41006,13.98938 1.08326,-0.65004 2.07149,-1.44002 3.0868,-2.1873 z m -24.98453,-1.9371 c 9.0903,-5.99616 -9.178028,0.68322 -7.456047,1.64314 2.983797,0.90828 5.343147,0.88602 7.456047,-1.64314 z m -41.299169,1.08805 c -0.383363,-1.32512 -16.706541,-8.04832 -8.350531,-1.45378 1.812635,2.45697 5.73325,1.01825 8.350531,1.45378 z m 24.119842,-0.16275 C 117.08834,141.10079 142.12313,115.73438 143.72791,86.515661 147.15802,55.72653 123.58192,25.364511 93.286889,20.006592 67.855908,14.82883 40.157966,27.418863 27.362756,49.983802 c -12.471627,20.705929 -11.132118,48.49923 3.233366,67.933708 12.724925,18.16067 35.441668,28.32213 57.465891,25.84064 z m 39.140207,-5.66216 c 6.51541,-2.04173 12.67284,-5.31773 17.7519,-9.90812 0.65974,-5.2227 -0.82261,-9.03691 -5.5483,-4.11028 -2.38044,1.48083 0.28824,-9.11973 -4.72841,-3.11675 -5.58889,4.52305 -9.6081,11.49467 -11.82402,18.07699 1.47315,0.32378 2.93705,-0.68186 4.34883,-0.94184 z m -95.513692,-1.83108 c -1.652218,-3.59312 -4.780186,-8.48595 2.162884,-5.46483 0.757041,-6.76357 -8.890657,-13.32317 -14.494323,-17.81377 -4.71913,-1.43419 0.144148,10.10846 0.578802,13.46121 1.60288,4.50115 3.149818,10.74069 9.06515,10.11767 0.72748,-0.072 2.514098,0.85557 2.687487,-0.30028 z m 88.493212,-1.51359 c 4.89529,-0.32595 9.38255,-12.2828 2.55958,-4.30164 -0.98535,1.55062 -10.21469,6.18513 -2.55958,4.30164 z m -76.015086,-1.02323 c -3.189606,-2.19043 -12.928125,-12.78274 -7.682185,-3.29305 0.867704,2.10505 6.493265,3.71046 7.682185,3.29305 z m -23.521402,-1.32292 c -2.35828,-4.31632 -2.733594,-9.73898 -4.701491,-13.9628 -3.098071,-1.86421 -9.7919535,-5.99826 -5.01973,0.76872 2.665515,4.25448 6.389123,11.45136 9.721221,13.19408 z m 128.167958,-7.9375 c 2.678,-4.96808 6.818,-10.75652 7.30138,-15.93377 -4.02369,4.8009 -13.86392,13.59869 -8.65876,17.8647 l 0.63962,-0.86934 0.71776,-1.06157 z m -6.13267,-4.53965 c 5.31965,-5.32219 17.05097,-11.96093 12.58582,-20.74782 -1.53963,-6.704682 -6.30199,9.26612 -7.221,-0.644119 -2.62595,-2.522939 -5.77246,7.351759 -6.39096,10.103239 -0.12494,2.40348 -5.06556,16.8823 1.02614,11.2887 z m -6.60576,-1.72094 c 4.52862,-1.80614 4.79538,-15.1314 1.07538,-5.09967 -0.99629,2.13108 -6.71089,9.31071 -1.07538,5.09967 z M 28.267271,117.43677 c -2.401024,-3.7448 -7.080309,-14.62285 -5.948053,-4.83799 0.722833,1.62055 5.438468,5.51715 5.948053,4.83799 z m -12.43251,-4.7051 c -2.623301,-7.56619 7.756138,3.25482 4.852488,-5.29619 -0.05044,-4.78966 -3.62054,-8.638456 -5.406335,-12.892313 -1.604958,-3.591661 -5.4190283,-8.975232 -5.7134425,-1.832091 -0.4712882,7.00762 -4.156817,17.666404 2.9809195,22.126144 3.07028,2.09863 4.071073,1.96626 3.28637,-2.10555 z M 6.8418922,103.83011 C 6.2808851,99.243034 9.6623143,94.058531 4.8441584,91.066985 -1.7745154,83.600609 4.6357763,102.21051 5.2582199,106.04218 c 1.4022828,5.81605 1.6752172,1.20208 1.5836723,-2.21207 z M 159.95906,96.585532 c 0.34571,-4.542907 2.48679,-11.864834 0.82265,-14.973029 -0.28128,5.288057 -6.19258,9.930886 -4.97847,14.851102 1.21089,3.707575 3.33686,9.230655 3.79775,1.873383 z m -15.49596,1.94861 c 3.8146,-2.718974 2.22751,-7.658214 0.91674,-10.893181 0.35826,1.596438 -4.2113,14.428009 -0.91674,10.893181 z m 8.02056,-2.46508 c 3.84855,-5.830592 6.56751,-12.410079 7.68378,-19.31744 -2.71936,-4.007465 -6.52683,-7.416255 -6.88669,-0.16749 -0.51034,4.769187 -5.0917,-7.559437 -5.54785,0.326066 -1.98525,5.202794 0.0937,10.777677 0.54059,16.083777 0.82703,3.012427 1.11063,9.435695 4.21017,3.075087 z m -133.258358,0.88195 c -1.136036,-3.709499 -1.683446,-17.140145 -3.827906,-6.681705 -0.490195,1.492854 3.84369,9.088757 3.827906,6.681705 z m -10.1751258,-8.4878 c 0.5074169,-7.49165 5.8647638,5.118874 6.4794598,-3.338637 1.172289,-6.421002 -0.616545,-13.214176 -1.92203,-19.543248 -2.908237,-3.468778 -6.8641132,8.542786 -8.6504239,12.200415 -3.474927,4.378903 -1.3795319,13.906221 3.3838881,13.001101 l 0.3463447,-1.052764 0.3627653,-1.266867 z m -6.287242,-9.08203 C 2.8781216,74.612914 8.9752634,70.654492 6.9406507,66.134039 5.8627965,61.949232 3.4397794,58.579351 3.067169,65.140229 c -1.0703731,5.48883 -1.5342895,11.06793 -1.8158148,16.645813 1.114817,-0.07396 1.0726854,-1.819746 1.51158,-2.40486 z M 146.92126,74.564342 c 1.89343,-3.445946 -1.50549,-6.430037 -3.17175,-9.18081 0.60968,1.638663 1.38798,17.862928 3.17175,9.18081 z M 17.947126,72.506332 c 0.703704,-3.438632 3.312899,-13.209344 -1.20625,-5.665034 -1.673346,1.324135 0.799911,13.212687 1.20625,5.665034 z m 142.887324,-1.29613 c -1.02866,-4.846804 -2.38689,-15.1654 -4.79546,-16.474477 0.51957,7.012297 -2.73944,16.204804 4.91403,19.865896 0.27905,-1.126493 -0.005,-2.270054 -0.11857,-3.391419 z m -8.14763,2.1047 c 0.83266,-7.810033 5.62275,-19.781739 -2.14493,-25.083444 -7.20524,-6.12085 0.46646,10.738888 -7.16984,3.496916 -3.03493,-1.256103 -0.41349,4.48483 -0.97018,6.245288 2.68047,5.796333 5.22328,11.993478 9.6253,16.66415 z M 11.32798,62.848032 c 3.01498,-6.536259 3.008759,7.036918 6.106974,0.506957 3.929126,-6.364603 5.763861,-14.631003 5.394066,-21.878287 -7.004835,4.259562 -13.1085112,10.453583 -16.9535488,17.73547 1.6263989,2.901842 2.2801553,11.247865 5.4525088,3.63586 z m 129.30298,-10.1097 c 0.85985,-3.93981 -3.71223,-5.581744 -6.08992,-7.743304 0.90787,1.164966 6.94654,15.516232 6.08992,7.743304 z M 8.0755002,52.721732 C 10.743285,49.385225 13.858381,46.449301 16.844989,43.405712 16.878572,39.51898 16.300091,32.486513 13.252423,39.736245 11.436008,43.34583 5.4852593,52.938747 7.0625246,54.079394 Z m 16.7479818,-1.27907 c 5.275886,-5.672727 4.272212,-10.544187 -0.616377,-4.156776 -0.368703,2.141294 -1.962468,9.740825 0.616377,4.156776 z m 120.808708,-1.05833 c -0.89196,-8.022696 -2.25869,-16.864891 -7.53591,-23.209404 -4.89682,-1.980672 -8.60067,-0.713872 -4.82764,4.325117 2.63363,4.235294 -8.52992,-2.650669 -4.03762,3.660501 1.86994,5.808368 7.58336,8.936494 11.76672,12.941461 1.07609,0.33724 4.01715,4.018558 4.63445,2.282325 z m 6.70462,-5.80554 c -2.67413,-4.447806 -6.58124,-12.158684 -10.00376,-13.77561 3.19195,6.303553 2.44739,15.831636 11.35602,17.00915 -0.27995,-1.143497 -0.85627,-2.177244 -1.35226,-3.23354 z M 28.024934,42.133562 c 4.912974,-4.04506 12.109667,-13.411599 10.990371,-18.206903 -7.733399,1.950298 -15.181823,5.499089 -21.081779,10.932973 -1.040583,6.278049 1.676073,8.773927 6.527664,3.44207 0.612085,3.001352 -1.095666,8.097766 3.563744,3.83186 z m 100.328026,-5.27673 c -0.59299,-5.458773 -5.12916,-6.957076 -9.74556,-7.977158 3.02492,2.364177 6.86445,6.950127 9.74556,7.977158 z m -89.918145,-2.91721 c 2.411765,-2.218931 11.705069,-8.104602 2.979673,-5.370205 -2.094086,-0.0066 -8.552423,11.342111 -2.979673,5.370205 z m 92.740365,-3.415145 c -3.39739,-7.382605 -7.96776,-14.985929 -14.9478,-19.387378 -5.64095,-0.313867 -8.52777,2.245187 -3.12597,5.748365 3.48712,2.688834 -9.32719,0.868229 -2.16866,5.177102 5.47425,4.839974 12.99049,7.575878 20.06983,8.679643 z M 23.582325,28.635388 c 3.655846,-3.240372 10.946219,-2.547622 11.239165,-8.479318 1.946627,-8.758645 -11.233731,6.626697 -14.514969,9.971825 -0.538959,1.422857 2.961499,-1.721963 3.275804,-1.492507 z M 45.05682,26.151615 c 5.892583,-1.499428 10.29125,-6.336559 14.902222,-10.050279 6.247949,-5.7879 -8.447562,-2.944575 -11.903399,-3.041894 -4.136239,1.104151 -10.970067,0.773184 -11.397142,6.340465 -4.762112,8.041574 10.208048,-2.390093 4.899089,5.683832 -1.82251,3.415041 2.024916,1.231945 3.49923,1.067876 z m 92.63489,-0.88672 C 133.75039,20.190871 125.512,14.091268 121.31964,12.895643 c 5.63836,5.005909 7.11899,14.397423 16.37207,12.369252 z m -27.69694,-1.691662 c -1.86444,-3.826521 -5.24847,-4.982482 -9.2346,-4.446074 -7.927346,-1.03848 8.81997,4.655478 9.2346,4.446074 z M 61.303173,20.636567 c 7.134661,-0.799079 4.024365,-3.283282 -0.965467,-2.545867 -2.745539,2.084516 -8.817956,6.652022 -1.680801,3.489321 l 1.344372,-0.485085 z m 27.18591,-3.144315 C 86.154269,13.00778 76.433973,15.964851 76.885404,17.3424 c 3.829183,-0.04192 7.978473,0.648753 11.603679,0.149852 z M 110.50452,17.132923 C 105.75125,10.439614 97.965917,5.6540604 90.071163,3.2760988 c -3.559824,2.0111641 -8.921705,4.746131 -1.760407,6.300864 5.355213,1.8952202 -7.687875,4.2514022 0.619297,5.9705462 5.370472,3.082754 11.950597,1.804875 17.877427,2.01556 1.21395,-0.176088 2.52441,0.02211 3.69704,-0.430146 z M 73.271028,16.266761 c 3.963933,-1.346143 19.223633,-4.730852 8.865076,-7.8641124 -5.965062,-2.1392777 -13.071792,-4.2153155 -19.1957,-3.3585949 -2.366416,2.7718504 -7.060259,7.3463013 0.02441,6.4678013 6.532949,-0.430133 -5.716125,7.246751 3.448191,5.51841 2.312869,0.179459 4.637226,-0.101314 6.858019,-0.763504 z M 45.273803,12.00797 c 3.659328,-1.739975 9.301975,0.92852 11.932364,-2.415195 3.66511,-3.424347 5.17757,-7.2616727 -1.251408,-3.9018437 -4.14613,1.8987151 -13.157794,4.4579107 -13.944151,7.0629467 1.080116,-0.281131 2.171582,-0.51485 3.263195,-0.745908 z m 66.234017,-1.624904 c 8.95917,-1.7321364 -6.88522,-5.1158415 -9.94015,-6.310894 -4.437895,-1.7602207 -9.185967,-1.4330799 -2.35456,1.4104613 4.23945,1.7976795 7.26125,7.4041317 12.29471,4.9004327 z M 83.750373,5.3169838 C 89.505203,2.9319468 89.017157,0.54218206 83.427402,1.642308 77.823039,1.9063984 72.030561,1.4767659 66.616487,3.0095008 72.144515,2.9093986 78.872139,7.6653086 83.750373,5.3169838 Z"
       id="path1"
       inkscape:label="outer_circle" /><path
       style="display:inline;fill:#000000;stroke:none"
       d="M 76.430994,140.97327 C 69.872653,140.31744 59.668052,137.60612 53.50044,134.25712 47.849137,131.18848 44.178372,128.40163 39.207507,123.40591 30.329706,114.4837 24.985956,102.79364 22.729848,93.485419 22.444875,92.30968 22.126292,90.7074 21.9602,89.509074 c -0.369216,-2.663838 -0.477782,-4.954867 -0.533955,-7.72029 -0.06366,-3.134176 0.149175,-5.802908 0.519755,-8.50749 0.171498,-1.251637 0.802038,-3.70416 0.802038,-3.70416 5.252423,-24.25804 23.118203,-41.92333 47.509368,-46.97623 0,0 3.099676,-0.63428 4.409725,-0.803904 2.02537,-0.262243 4.476217,-0.429545 6.886864,-0.429545 2.410647,0 4.71486,0.118431 7.047849,0.429545 1.309393,0.174613 3.445636,0.535938 4.739156,0.803904 5.59847,1.15978 9.09166,2.64502 14.31084,5.17724 15.43101,7.48673 26.69953,21.07772 31.38511,37.85364 2.56022,9.1664 2.62869,21.12821 0.17649,30.83406 -1.41166,5.587406 -4.87439,13.277206 -8.2256,18.266846 -1.84575,2.74814 -4.04802,5.35952 -7.39528,8.76908 -8.79782,8.96154 -19.56647,14.52606 -32.521266,16.80484 -3.1584,0.55557 -6.372083,0.92495 -9.348613,0.89539 -2.468994,-0.0245 -5.291687,-0.22873 -5.291687,-0.22873 z M 41.07088,96.123654 l 0.09405,-9.26041 h 5.441378 c 3.282976,0 5.528728,-0.14134 5.661588,-0.35631 0.170602,-0.27604 0.284941,-5.58844 0.187847,-8.72772 -0.01032,-0.33384 -1.384987,-0.44097 -5.658083,-0.44097 h -5.644444 v -5.4609 -5.4609 l 7.320138,-0.0953 7.320139,-0.0953 v -4.40973 -4.40972 l -12.082639,-0.0928 -12.082638,-0.0928 v 24.18015 24.180156 l 4.674305,-0.0984 4.674306,-0.0984 z m 27.422615,-14.72847 v -23.98889 h -4.586111 -4.586111 l -0.09136,23.63611 c -0.05025,12.99986 -0.01372,23.839326 0.08119,24.087686 0.130552,0.34166 1.269008,0.42752 4.677473,0.35278 l 4.504924,-0.0988 z m 14.640279,14.81667 v -9.34861 h 6.16775 6.16776 l 0.094,9.26041 0.094,9.260426 h 4.586106 4.58611 l -0.0119,-13.934726 -0.0119,-13.93472 -0.75582,-2.85431 c -1.72534,-6.51562 -4.446016,-11.78796 -8.097176,-15.69135 l -1.62669,-1.73907 h -10.14454 -10.14454 l -0.21413,0.55802 c -0.27978,0.7291 -0.27978,46.485426 0,47.214526 l 0.21413,0.55802 h 4.54837 4.54837 z m 0.079,-24.25347 0.0974,-5.37987 3.52778,-0.10313 c 1.94027,-0.0567 3.88146,-0.0149 4.31375,0.093 0.97956,0.24439 3.49091,5.25486 3.80671,7.59489 0.11783,0.87312 0.28665,1.94468 0.37514,2.38125 l 0.16089,0.79375 h -6.18952 -6.18952 z m 39.236936,32.994656 c 0.1282,-0.33408 0.21543,-8.946276 0.19386,-19.138196 -0.0216,-10.19193 -0.0301,-18.72921 -0.019,-18.97174 0.015,-0.32716 1.11293,-0.44097 4.2536,-0.44097 h 4.23334 v -4.58612 -4.58611 h -13.40556 -13.40556 v 4.57526 4.57525 l 4.32153,0.099 4.32153,0.0991 0.0912,19.49098 0.0912,19.490976 h 4.54538 4.54538 z"
       id="path2"
       inkscape:label="inner_circle"
       sodipodi:nodetypes="sssssssssszssssssssssccssssccccccccccccccccccsssccccccccccccsscccssccccccccssccccscsscccccccccccccs" /></g></svg>
